<svg id="Layer_1" data-name="Layer 1" xmlns="http://www.w3.org/2000/svg" viewBox="0 0 640 640"><title>CollageArtboard 4</title><path d="M204.87,262.78A90.54,90.54,0,0,0,149.38,193a90.21,90.21,0,0,0-67.27-.17V133.07c-56.9.5-57.11,57.69-57.11,57.69v93.51c.38,2.42.79,4.79,1.29,7.13a90.45,90.45,0,0,0,89.27,75.89,89.19,89.19,0,0,0,26.87-4.08.26.26,0,0,0,.2-.08,69,69,0,0,0,7-2.5c.13,0,.21-.09.29-.09A90.91,90.91,0,0,0,183,337c.37.62.79,1.25,1.21,1.87A48.84,48.84,0,0,0,192,347.8q16.68,15.12,43.19,15.12,32.55,0,52.24-19.37c7.33,12.49,20.62,18.66,39.94,18.66,9.92,0,18.17-1.79,24.87-5.62,13.75,4.24,30.58,6.33,50.61,6.33,23,0,41.16-4.83,54.45-14.5A51.35,51.35,0,0,0,471,334.09c.41-.71.83-1.33,1.21-2a84.53,84.53,0,0,0,140.16-21.83c-1.83,1.46-3.74,2.84-5.7,4.17a73,73,0,0,1-91.89-10.29,23.86,23.86,0,0,1-3.75-4.25,26.76,26.76,0,0,1-4.67-9.16H616V276.53c0-25.37-7.5-45.95-22.29-61.57a57,57,0,0,0-5.49-5.5c0-.17-.09-.17-.09-.17a84.47,84.47,0,0,0-47.9-18.45c-1-.08-2.12-.08-3.25-.08a104.38,104.38,0,0,0-18,1.5c-.83.12-1.62.29-2.37.41a84.86,84.86,0,0,0-65.77,73.57h-.09a117.85,117.85,0,0,0-23.37-8.46c-1.08-.21-4.37-1-9.95-2.25S408,253.41,406.06,253l-7.71-2.33c-4.91-1.46-7.37-3.92-7.37-7.33,0-5.63,6-8.38,18.33-8.38a106.36,106.36,0,0,1,33.11,5.21,91,91,0,0,1,16.21-30.57,76.65,76.65,0,0,1,5.5-6Q439.82,190.74,407,190.76c-23.37,0-41.78,4.58-55.07,13.83-10.29,7.16-16.58,16.28-18.91,27.74a57.6,57.6,0,0,0-17.83-23.54q-22.62-18-58.4-18c-24.2,0-44.7,3.87-61.4,11.83a76.86,76.86,0,0,1,9.16,11.16A95.59,95.59,0,0,1,216.07,239a100.64,100.64,0,0,1,26.91-3.5,70.89,70.89,0,0,1,24.45,3.91c9,3,13.62,10.37,13.62,22.2v2.25c-11.66-5.54-25.53-8.37-41.65-8.37a72.13,72.13,0,0,0-34.33,7.21Z" style="fill:none;stroke:#00e701;stroke-miterlimit:10;stroke-width:8px"/><path d="M147.53,292.1a33.71,33.71,0,0,1-62.94-16.82v-1.5a2.16,2.16,0,0,0,.08-.71,24.38,24.38,0,0,1,.25-2.46c0-.29.08-.5.08-.71.09-.41.13-.75.21-1.12s.17-.63.21-.92c.17-.75.37-1.46.58-2.16a5.69,5.69,0,0,1,.29-1c.21-.5.34-1,.55-1.5a5,5,0,0,1,.33-.92,3.1,3.1,0,0,1,.25-.54c.25-.59.54-1.21.83-1.75.09-.08.09-.21.13-.29a7.44,7.44,0,0,0,.41-.79c.3-.5.59-1,.88-1.46,0-.17.21-.21.25-.38a10.08,10.08,0,0,1,.92-1.33v-.08c.37-.46.7-1,1.12-1.46.29-.33.67-.79,1-1.13a1.12,1.12,0,0,0,.21-.29c.41-.41.79-.83,1.21-1.25a33.76,33.76,0,0,1,2.54-2.33.08.08,0,0,0,.08-.08,10.5,10.5,0,0,1,1.33-1c.5-.34,1-.67,1.42-1s1-.55,1.37-.84.88-.5,1.3-.71a3.44,3.44,0,0,1,.79-.41,9,9,0,0,1,1-.5c.08-.09.12-.09.29-.17a4.92,4.92,0,0,1,1.17-.46c.25-.08.37-.16.58-.21s.58-.2.83-.37.67-.21.92-.29a3.38,3.38,0,0,0,.58-.21c.42-.13.83-.21,1.33-.33a7.14,7.14,0,0,1,1.34-.29c.08-.09.12-.09.29-.09.5-.12,1-.21,1.62-.29a26.75,26.75,0,0,1,3.29-.33,12.33,12.33,0,0,1,1.84-.09,33.52,33.52,0,0,1,21.45,7.71c.25.21.46.42.67.62h0c.46.38.87.8,1.29,1.21s.79.79,1.21,1.25c.58.63,1.16,1.34,1.75,2a36.57,36.57,0,0,1,2.29,3.25,19.5,19.5,0,0,1,1,1.75c.33.58.62,1.21.91,1.79a33.16,33.16,0,0,1,3.17,14.21A32.6,32.6,0,0,1,147.53,292.1Z" style="fill:none;stroke:#00e701;stroke-miterlimit:10;stroke-width:8px"/><path d="M282,310.35c-6.29,9.45-15.08,14.16-26.49,14.16-6.67,0-12.12-1.66-16.46-5.12a16.57,16.57,0,0,1-6.45-13.54q0-8.69,7.33-14.16c4.79-3.67,10.83-5.5,18.16-5.5q14.49,0,23.91,7Z" style="fill:none;stroke:#00e701;stroke-miterlimit:10;stroke-width:8px"/><path d="M334,232.37a65.55,65.55,0,0,1,4.38,24.41v11.46a32.36,32.36,0,0,0,5.79,7.33c7.75,6.87,21,12.95,39.65,18.37,13.75,3.66,21.46,5.62,22.91,6.12l7.42,2.54c4.71,2,7.12,4.46,7.12,7.42,0,5.41-6.7,8.08-20,8.08A139.44,139.44,0,0,1,362.8,313c-9.87-2.87-18-6.2-24.45-10.08V268.24" style="fill:none;stroke:#00e701;stroke-miterlimit:10;stroke-width:8px"/><path d="M507,260.4c1.08-8.62,4.16-15.37,9.41-20.28a25.41,25.41,0,0,1,15.29-7.21,37,37,0,0,1,3.71-.21,24.12,24.12,0,0,1,18,7.67c5,5.25,7.5,11.87,7.71,20Z" style="fill:none;stroke:#00e701;stroke-miterlimit:10;stroke-width:8px"/><text transform="matrix(0.58, 0, 0, 0.58, 66.89, 469.37)" style="font-size:134.4260711669922px;fill:#00e701;font-family:ProductSans-Regular, Product Sans"><tspan style="letter-spacing:-0.015002874159007081em">A</tspan><tspan x="87.78" y="0">ch</tspan><tspan x="230.81" y="0" style="letter-spacing:-0.004984343574420957em">i</tspan><tspan x="259.71" y="0" style="letter-spacing:-0.009993608866714016em">e</tspan><tspan x="330.42" y="0" style="letter-spacing:-0.015002874159007081em">v</tspan><tspan x="395.34" y="0">e M</tspan><tspan x="608.54" y="0" style="letter-spacing:-0.009993608866714016em">o</tspan><tspan x="682.47" y="0" style="letter-spacing:-0.030005748318014162em">r</tspan><tspan x="727.24" y="0">e</tspan></text><text transform="translate(537.25 457.79) scale(0.58)" style="font-size:120px;fill:#00e701;font-family:MyriadPro-Regular, Myriad Pro">™</text></svg>