<svg id="Layer_1" data-name="Layer 1" xmlns="http://www.w3.org/2000/svg" viewBox="0 0 640 640"><title>CollageArtboard 8</title><path d="M205.56,258.09a90.53,90.53,0,0,0-55.48-69.82,90.3,90.3,0,0,0-67.28-.16V128.37c-56.9.5-57.1,57.7-57.1,57.7v93.51c.37,2.42.79,4.79,1.29,7.12a90.43,90.43,0,0,0,89.26,75.9,89.4,89.4,0,0,0,26.87-4.08.26.26,0,0,0,.21-.09,65.29,65.29,0,0,0,7-2.5c.12,0,.21-.08.29-.08a90.79,90.79,0,0,0,33-23.53c.38.62.79,1.25,1.21,1.87a48.83,48.83,0,0,0,7.83,8.91q16.68,15.13,43.2,15.13,32.55,0,52.23-19.37c7.33,12.49,20.62,18.66,39.95,18.66,9.91,0,18.16-1.79,24.87-5.63,13.74,4.25,30.57,6.34,50.61,6.34,23,0,41.15-4.84,54.44-14.5a51.35,51.35,0,0,0,13.62-14.33c.42-.71.84-1.33,1.21-2a84.68,84.68,0,0,0,134.46-11.21A81.71,81.71,0,0,0,613,305.53c-1.83,1.46-3.75,2.83-5.71,4.17a73,73,0,0,1-91.89-10.29,24.68,24.68,0,0,1-3.75-4.25A27,27,0,0,1,507,286H616.7V271.83c0-25.36-7.5-45.94-22.29-61.56a57.1,57.1,0,0,0-5.5-5.5c0-.17-.08-.17-.08-.17a84.5,84.5,0,0,0-47.9-18.45c-1-.08-2.13-.08-3.25-.08a104.3,104.3,0,0,0-18,1.5c-.83.12-1.62.29-2.37.41a84.85,84.85,0,0,0-65.78,73.56h-.08A117.72,117.72,0,0,0,428,253.09c-1.08-.21-4.37-1-10-2.25s-9.38-2.13-11.33-2.54L399.05,246c-4.92-1.46-7.37-3.92-7.37-7.34,0-5.62,6-8.37,18.32-8.37a106.47,106.47,0,0,1,33.12,5.21,91.15,91.15,0,0,1,16.2-30.58c1.84-2.25,3.67-4.2,5.5-6q-24.3-12.81-57.11-12.78c-23.37,0-41.78,4.58-55.06,13.83-10.29,7.16-16.58,16.28-18.92,27.74a57.36,57.36,0,0,0-17.82-23.54q-22.62-18.06-58.4-18c-24.21,0-44.7,3.87-61.4,11.83a76.86,76.86,0,0,1,9.16,11.16,95.86,95.86,0,0,1,11.5,25.28,101,101,0,0,1,26.91-3.49,70.94,70.94,0,0,1,24.45,3.91c9,3,13.62,10.37,13.62,22.2v2.25c-11.66-5.54-25.54-8.37-41.66-8.37-12.49-.29-23.91,2-34.32,7.21Z" style="fill:none;stroke:#000;stroke-miterlimit:10;stroke-width:8px"/><path d="M148.22,287.41a33.71,33.71,0,0,1-62.94-16.83v-1.5a1.88,1.88,0,0,0,.09-.7,21.56,21.56,0,0,1,.25-2.46c0-.29.08-.5.08-.71.08-.42.12-.75.21-1.12s.16-.63.21-.92c.16-.75.37-1.46.58-2.17a6.24,6.24,0,0,1,.29-1c.21-.5.33-1,.54-1.5a6.12,6.12,0,0,1,.34-.91,2.5,2.5,0,0,1,.25-.54c.25-.59.54-1.21.83-1.75.08-.09.08-.21.12-.3a7.56,7.56,0,0,0,.42-.79c.29-.5.58-1,.87-1.45,0-.17.21-.21.25-.38a11.5,11.5,0,0,1,.92-1.33V251c.38-.45.71-1,1.13-1.45.29-.34.66-.8,1-1.13a1.26,1.26,0,0,0,.2-.29c.42-.42.8-.83,1.21-1.25.79-.79,1.63-1.58,2.54-2.33a.09.09,0,0,0,.09-.09,11.83,11.83,0,0,1,1.33-1,16.15,16.15,0,0,0,1.42-1c.45-.29,1-.54,1.37-.83s.87-.5,1.29-.71a3.66,3.66,0,0,1,.79-.41,10.9,10.9,0,0,1,1-.5c.09-.09.13-.09.3-.17a5,5,0,0,1,1.16-.46,6.13,6.13,0,0,1,.58-.21c.3-.16.59-.21.84-.37l.91-.29a4.63,4.63,0,0,0,.59-.21c.41-.13.83-.21,1.33-.34a9.33,9.33,0,0,1,1.33-.29c.09-.08.13-.08.29-.08a14.86,14.86,0,0,1,1.63-.29,28.6,28.6,0,0,1,3.29-.34,13.71,13.71,0,0,1,1.83-.08,33.53,33.53,0,0,1,21.46,7.71c.25.21.45.41.66.62h0a16.46,16.46,0,0,1,1.29,1.21,16.06,16.06,0,0,1,1.21,1.25c.59.63,1.17,1.33,1.75,2a31.72,31.72,0,0,1,2.29,3.25,17.34,17.34,0,0,1,1,1.75c.34.58.63,1.21.92,1.79a33.15,33.15,0,0,1,3.17,14.2A32.52,32.52,0,0,1,148.22,287.41Z" style="fill:none;stroke:#000;stroke-miterlimit:10;stroke-width:8px"/><path d="M282.69,305.66c-6.29,9.45-15.08,14.16-26.5,14.16-6.66,0-12.12-1.67-16.45-5.12a16.58,16.58,0,0,1-6.46-13.54c0-5.79,2.46-10.5,7.33-14.16s10.83-5.5,18.17-5.5q14.49,0,23.91,7Z" style="fill:none;stroke:#000;stroke-miterlimit:10;stroke-width:8px"/><path d="M334.67,227.68A65.51,65.51,0,0,1,339,252.09v11.45a33,33,0,0,0,5.79,7.34c7.75,6.87,21,12.95,39.66,18.37,13.75,3.66,21.45,5.62,22.91,6.12l7.41,2.54c4.71,2,7.13,4.46,7.13,7.41,0,5.42-6.71,8.09-20,8.09a139.42,139.42,0,0,1-38.4-5.13c-9.88-2.87-18-6.21-24.46-10.08V263.54" style="fill:none;stroke:#000;stroke-miterlimit:10;stroke-width:8px"/><path d="M507.66,255.71c1.09-8.62,4.17-15.37,9.42-20.28a25.41,25.41,0,0,1,15.29-7.21,36.66,36.66,0,0,1,3.7-.21,24.12,24.12,0,0,1,18,7.67c5,5.25,7.5,11.87,7.71,20Z" style="fill:none;stroke:#000;stroke-miterlimit:10;stroke-width:8px"/><text transform="matrix(0.58, 0, 0, 0.58, 66.59, 462.67)" style="font-size:134.4260711669922px;font-family:ProductSans-Regular, Product Sans"><tspan style="letter-spacing:-0.015002874159007081em">A</tspan><tspan x="87.78" y="0">ch</tspan><tspan x="230.81" y="0" style="letter-spacing:-0.004984343574420957em">i</tspan><tspan x="259.71" y="0" style="letter-spacing:-0.009993608866714016em">e</tspan><tspan x="330.42" y="0" style="letter-spacing:-0.015002874159007081em">v</tspan><tspan x="395.34" y="0">e M</tspan><tspan x="608.54" y="0" style="letter-spacing:-0.009993608866714016em">o</tspan><tspan x="682.47" y="0" style="letter-spacing:-0.030005748318014162em">r</tspan><tspan x="727.24" y="0">e</tspan></text><text transform="translate(543.95 457.1) scale(0.58)" style="font-size:120px;font-family:MyriadPro-Regular, Myriad Pro">™</text></svg>